<svg xmlns="http://www.w3.org/2000/svg" xmlns:xlink="http://www.w3.org/1999/xlink" width="3780" zoomAndPan="magnify" viewBox="0 0 2835 850.499975" height="1134" preserveAspectRatio="xMidYMid meet" version="1.0"><defs><g/><clipPath id="39d0f56592"><path d="M 0.910156 0 L 2553.96875 0 L 2553.96875 846.703125 L 0.910156 846.703125 Z M 0.910156 0 " clip-rule="nonzero"/></clipPath><clipPath id="d1c71871e3"><path d="M 2029 1 L 2212 1 L 2212 227.757812 L 2029 227.757812 Z M 2029 1 " clip-rule="nonzero"/></clipPath><clipPath id="cd4ab96584"><path d="M 2028 0 L 2212.480469 0 L 2212.480469 227.757812 L 2028 227.757812 Z M 2028 0 " clip-rule="nonzero"/></clipPath><clipPath id="9f7aaeb0bc"><path d="M 0.910156 135 L 2553.96875 135 L 2553.96875 793 L 0.910156 793 Z M 0.910156 135 " clip-rule="nonzero"/></clipPath><clipPath id="e27e770db3"><rect x="0" width="2554" y="0" height="658"/></clipPath><clipPath id="c1058e09ab"><rect x="0" width="2554" y="0" height="847"/></clipPath><clipPath id="d208b52720"><rect x="0" width="2554" y="0" height="847"/></clipPath></defs><g transform="matrix(1, 0, 0, 1, 140, 0)"><g clip-path="url(#d208b52720)"><g clip-path="url(#39d0f56592)"><g><g clip-path="url(#c1058e09ab)"><g clip-path="url(#d1c71871e3)"><path fill="#b42894" d="M 2044.730469 203.636719 L 2081.941406 152.746094 L 2029.644531 113.445312 L 2128.265625 1.027344 L 2211.566406 79.679688 L 2140.324219 123.273438 L 2211.125 154.925781 L 2210.699219 227.511719 Z M 2044.730469 203.636719 " fill-opacity="1" fill-rule="nonzero"/></g><g clip-path="url(#cd4ab96584)"><path fill="#b42894" d="M 2127.546875 0.0078125 L 2212.476562 79.257812 L 2141.832031 123.058594 L 2212.042969 153.953125 L 2212.042969 227.757812 L 2211.269531 227.652344 L 2044.042969 204.605469 L 2081.222656 153.125 L 2028.644531 114.09375 L 2029.125 113.542969 Z M 2210.257812 79.039062 L 2127.65625 1.960938 L 2030.632812 113.875 L 2083.113281 152.832031 L 2046.46875 203.570312 L 2210.6875 226.203125 L 2210.6875 154.835938 L 2138.925781 123.261719 L 2140.019531 122.582031 Z M 2210.257812 79.039062 " fill-opacity="1" fill-rule="nonzero"/></g><g clip-path="url(#9f7aaeb0bc)"><g transform="matrix(1, 0, 0, 1, 0, 135)"><g clip-path="url(#e27e770db3)"><g fill="#67178d" fill-opacity="1"><g transform="translate(3.825385, 504.700091)"><g><path d="M 21.46875 -420.828125 C 21.46875 -434.503906 20.273438 -445.710938 17.890625 -454.453125 C 15.503906 -463.203125 11.128906 -470.757812 4.765625 -477.125 L 209.9375 -477.125 C 240.789062 -477.125 266.15625 -471.476562 286.03125 -460.1875 C 305.914062 -448.894531 320.707031 -434.257812 330.40625 -416.28125 C 340.113281 -398.3125 344.96875 -379.148438 344.96875 -358.796875 C 344.96875 -345.441406 342.179688 -331.6875 336.609375 -317.53125 C 331.046875 -303.375 322.695312 -290.332031 311.5625 -278.40625 C 300.425781 -266.476562 286.585938 -256.851562 270.046875 -249.53125 C 253.515625 -242.21875 234.273438 -238.5625 212.328125 -238.5625 C 194.828125 -238.5625 177.726562 -240.3125 161.03125 -243.8125 C 144.332031 -247.3125 129.144531 -250.726562 115.46875 -254.0625 C 101.789062 -257.40625 90.5 -259.078125 81.59375 -259.078125 C 78.40625 -259.078125 75.773438 -258.441406 73.703125 -257.171875 C 71.640625 -255.898438 70.609375 -253.988281 70.609375 -251.4375 C 70.609375 -246.664062 75.300781 -242.609375 84.6875 -239.265625 C 94.070312 -235.929688 106.078125 -233.226562 120.703125 -231.15625 C 135.335938 -229.09375 150.523438 -227.34375 166.265625 -225.90625 C 182.015625 -224.476562 196.253906 -223.128906 208.984375 -221.859375 C 257.648438 -217.085938 293.273438 -204.441406 315.859375 -183.921875 C 338.441406 -163.410156 349.734375 -136.773438 349.734375 -104.015625 C 349.734375 -85.242188 344.5625 -67.984375 334.21875 -52.234375 C 323.882812 -36.492188 309.96875 -23.851562 292.46875 -14.3125 C 274.976562 -4.769531 255.257812 0 233.3125 0 L 4.765625 0 C 11.128906 -6.363281 15.503906 -13.914062 17.890625 -22.65625 C 20.273438 -31.40625 21.46875 -42.617188 21.46875 -56.296875 Z M 175.109375 -381.703125 C 158.878906 -381.703125 143.050781 -380.03125 127.625 -376.6875 C 112.195312 -373.351562 98.441406 -368.582031 86.359375 -362.375 C 74.273438 -356.175781 64.65625 -349.019531 57.5 -340.90625 C 50.34375 -332.789062 46.765625 -323.960938 46.765625 -314.421875 C 46.765625 -303.609375 51.691406 -295.257812 61.546875 -289.375 C 71.410156 -283.488281 82.863281 -280.546875 95.90625 -280.546875 C 123.257812 -280.546875 146.554688 -284.046875 165.796875 -291.046875 C 185.046875 -298.046875 199.757812 -306.632812 209.9375 -316.8125 C 220.113281 -326.988281 225.203125 -336.847656 225.203125 -346.390625 C 225.203125 -355.929688 220.90625 -364.203125 212.3125 -371.203125 C 203.726562 -378.203125 191.328125 -381.703125 175.109375 -381.703125 Z M 52.953125 -221.859375 C 50.734375 -221.859375 49.222656 -221.300781 48.421875 -220.1875 C 47.628906 -219.070312 47.234375 -217.878906 47.234375 -216.609375 C 47.234375 -213.753906 49.140625 -209.617188 52.953125 -204.203125 C 56.773438 -198.796875 61.390625 -193.070312 66.796875 -187.03125 C 72.203125 -180.988281 76.972656 -175.421875 81.109375 -170.328125 C 90.015625 -160.148438 99.953125 -149.097656 110.921875 -137.171875 C 121.898438 -125.242188 134.148438 -115.066406 147.671875 -106.640625 C 161.191406 -98.210938 175.582031 -94 190.84375 -94 C 200.382812 -94 207.9375 -95.828125 213.5 -99.484375 C 219.070312 -103.140625 223.050781 -107.59375 225.4375 -112.84375 C 227.820312 -118.09375 229.015625 -123.101562 229.015625 -127.875 C 229.015625 -139.632812 222.175781 -151.554688 208.5 -163.640625 C 194.820312 -175.734375 170.332031 -187.1875 135.03125 -198 C 109.582031 -205.957031 91.050781 -211.921875 79.4375 -215.890625 C 67.832031 -219.867188 59.003906 -221.859375 52.953125 -221.859375 Z M 52.953125 -221.859375 "/></g></g></g><g fill="#67178d" fill-opacity="1"><g transform="translate(353.550591, 504.700091)"><g><path d="M 11.921875 -157.921875 C 11.921875 -192.910156 18.441406 -224.160156 31.484375 -251.671875 C 44.523438 -279.191406 63.769531 -300.984375 89.21875 -317.046875 C 114.664062 -333.109375 146 -341.140625 183.21875 -341.140625 C 211.53125 -341.140625 235.625 -335.097656 255.5 -323.015625 C 275.382812 -310.929688 290.492188 -295.1875 300.828125 -275.78125 C 311.160156 -256.375 316.328125 -235.695312 316.328125 -213.75 C 316.328125 -197.84375 312.585938 -185.515625 305.109375 -176.765625 C 297.640625 -168.023438 287.460938 -161.828125 274.578125 -158.171875 C 261.703125 -154.515625 247.148438 -152.363281 230.921875 -151.71875 C 214.703125 -151.082031 197.765625 -151.160156 180.109375 -151.953125 C 162.460938 -152.753906 145.207031 -153.15625 128.34375 -153.15625 C 126.113281 -153.15625 123.726562 -152.914062 121.1875 -152.4375 C 118.644531 -151.957031 117.375 -149.648438 117.375 -145.515625 C 117.375 -141.390625 121.585938 -135.664062 130.015625 -128.34375 C 138.441406 -121.03125 149.332031 -113.554688 162.6875 -105.921875 C 176.050781 -98.285156 190.367188 -91.921875 205.640625 -86.828125 C 220.910156 -81.742188 235.382812 -79.203125 249.0625 -79.203125 C 260.507812 -79.203125 269.734375 -80.472656 276.734375 -83.015625 C 283.734375 -85.566406 289.300781 -88.429688 293.4375 -91.609375 C 297.570312 -94.785156 300.988281 -97.644531 303.6875 -100.1875 C 306.394531 -102.738281 308.859375 -104.015625 311.078125 -104.015625 C 312.671875 -104.015625 314.34375 -103.378906 316.09375 -102.109375 C 317.84375 -100.835938 318.71875 -98.132812 318.71875 -94 C 318.71875 -85.09375 316.09375 -74.832031 310.84375 -63.21875 C 305.59375 -51.601562 297.640625 -40.46875 286.984375 -29.8125 C 276.328125 -19.164062 262.648438 -10.34375 245.953125 -3.34375 C 229.253906 3.65625 209.457031 7.15625 186.5625 7.15625 C 163.65625 7.15625 141.703125 3.019531 120.703125 -5.25 C 99.710938 -13.519531 81.109375 -25.128906 64.890625 -40.078125 C 48.671875 -55.023438 35.785156 -72.519531 26.234375 -92.5625 C 16.691406 -112.601562 11.921875 -134.390625 11.921875 -157.921875 Z M 65.359375 -245.25 C 65.359375 -234.113281 67.1875 -223.21875 70.84375 -212.5625 C 74.507812 -201.90625 80.394531 -193.15625 88.5 -186.3125 C 96.613281 -179.476562 107.035156 -176.0625 119.765625 -176.0625 C 130.890625 -176.0625 142.175781 -176.457031 153.625 -177.25 C 165.082031 -178.039062 175.660156 -179.628906 185.359375 -182.015625 C 195.066406 -184.410156 202.859375 -187.992188 208.734375 -192.765625 C 214.617188 -197.535156 217.5625 -203.894531 217.5625 -211.84375 C 217.5625 -224.25 214.460938 -235.222656 208.265625 -244.765625 C 202.066406 -254.304688 193.957031 -262.414062 183.9375 -269.09375 C 173.914062 -275.78125 163.335938 -280.789062 152.203125 -284.125 C 141.066406 -287.46875 130.410156 -289.140625 120.234375 -289.140625 C 111.328125 -289.140625 102.660156 -287.390625 94.234375 -283.890625 C 85.804688 -280.390625 78.882812 -275.378906 73.46875 -268.859375 C 68.0625 -262.335938 65.359375 -254.46875 65.359375 -245.25 Z M 65.359375 -245.25 "/></g></g></g><g fill="#67178d" fill-opacity="1"><g transform="translate(681.805871, 504.700091)"><g><path d="M 40.5625 -238.5625 C 34.832031 -257.96875 29.179688 -276.492188 23.609375 -294.140625 C 18.046875 -311.796875 10.175781 -325.078125 0 -333.984375 L 167 -333.984375 C 161.269531 -320.628906 159.835938 -305.921875 162.703125 -289.859375 C 165.566406 -273.796875 169.382812 -256.695312 174.15625 -238.5625 C 178.601562 -222.019531 183.210938 -204.363281 187.984375 -185.59375 C 192.753906 -166.832031 197.679688 -148.382812 202.765625 -130.25 C 207.859375 -112.125 213.03125 -95.582031 218.28125 -80.625 C 223.53125 -65.675781 228.617188 -53.75 233.546875 -44.84375 C 238.484375 -35.9375 243.335938 -31.484375 248.109375 -31.484375 C 253.828125 -31.484375 259.3125 -36.8125 264.5625 -47.46875 C 269.8125 -58.125 274.101562 -71.800781 277.4375 -88.5 C 280.78125 -105.207031 282.453125 -122.46875 282.453125 -140.28125 C 282.453125 -164.769531 279.507812 -184.410156 273.625 -199.203125 C 267.738281 -213.992188 260.503906 -225.523438 251.921875 -233.796875 C 243.335938 -242.066406 234.828125 -248.425781 226.390625 -252.875 C 217.960938 -257.332031 210.804688 -261.148438 204.921875 -264.328125 C 199.035156 -267.503906 196.09375 -271.476562 196.09375 -276.25 C 196.09375 -283.882812 199.429688 -291.519531 206.109375 -299.15625 C 212.796875 -306.789062 221.703125 -313.785156 232.828125 -320.140625 C 243.960938 -326.503906 255.972656 -331.59375 268.859375 -335.40625 C 281.742188 -339.226562 294.390625 -341.140625 306.796875 -341.140625 C 319.515625 -341.140625 329.609375 -338.195312 337.078125 -332.3125 C 344.554688 -326.425781 350.046875 -318.867188 353.546875 -309.640625 C 357.046875 -300.421875 358.796875 -290.566406 358.796875 -280.078125 C 358.796875 -266.710938 355.851562 -249.054688 349.96875 -227.109375 C 344.082031 -205.160156 336.523438 -180.664062 327.296875 -153.625 C 318.078125 -126.59375 308.21875 -98.601562 297.71875 -69.65625 C 287.226562 -40.707031 277.367188 -12.554688 268.140625 14.796875 C 260.503906 33.242188 253.03125 50.65625 245.71875 67.03125 C 238.40625 83.414062 230.296875 97.890625 221.390625 110.453125 C 212.484375 123.015625 201.984375 132.796875 189.890625 139.796875 C 177.804688 146.796875 163.015625 150.296875 145.515625 150.296875 C 135.972656 150.296875 125.953125 148.863281 115.453125 146 C 104.960938 143.132812 96.054688 139.554688 88.734375 135.265625 C 81.421875 130.972656 77.765625 126.597656 77.765625 122.140625 C 77.765625 117.054688 79.035156 110.773438 81.578125 103.296875 C 84.128906 95.816406 86.992188 87.304688 90.171875 77.765625 C 93.992188 65.679688 97.890625 54.628906 101.859375 44.609375 C 105.835938 34.585938 110.210938 29.578125 114.984375 29.578125 C 120.078125 29.578125 125.484375 31.085938 131.203125 34.109375 C 136.929688 37.128906 143.769531 40.226562 151.71875 43.40625 C 159.675781 46.59375 169.0625 48.1875 179.875 48.1875 C 194.507812 48.1875 206.359375 45.722656 215.421875 40.796875 C 224.484375 35.867188 231.160156 30.378906 235.453125 24.328125 C 239.753906 18.285156 241.90625 13.515625 241.90625 10.015625 C 241.90625 5.566406 240.070312 2.785156 236.40625 1.671875 C 232.75 0.554688 228.535156 0 223.765625 0 L 141.703125 0 C 131.847656 0 123.660156 -3.578125 117.140625 -10.734375 C 110.617188 -17.890625 105.128906 -27.269531 100.671875 -38.875 C 96.222656 -50.488281 92.328125 -62.894531 88.984375 -76.09375 C 85.640625 -89.300781 82.21875 -101.789062 78.71875 -113.5625 C 74.582031 -128.820312 70.609375 -142.414062 66.796875 -154.34375 C 62.984375 -166.269531 59.007812 -178.753906 54.875 -191.796875 C 50.738281 -204.835938 45.96875 -220.425781 40.5625 -238.5625 Z M 40.5625 -238.5625 "/></g></g></g><g fill="#67178d" fill-opacity="1"><g transform="translate(1031.053764, 504.700091)"><g><path d="M 60.59375 -41.984375 C 44.050781 -58.847656 31.722656 -77.851562 23.609375 -99 C 15.503906 -120.15625 11.609375 -141.941406 11.921875 -164.359375 C 12.242188 -186.785156 16.773438 -208.734375 25.515625 -230.203125 C 34.265625 -251.679688 47.226562 -271.007812 64.40625 -288.1875 C 81.90625 -305.675781 101.46875 -318.796875 123.09375 -327.546875 C 144.726562 -336.296875 166.675781 -340.671875 188.9375 -340.671875 C 210.570312 -340.671875 231.644531 -336.613281 252.15625 -328.5 C 272.675781 -320.382812 291.046875 -308.054688 307.265625 -291.515625 C 323.804688 -274.984375 336.128906 -256.140625 344.234375 -234.984375 C 352.347656 -213.828125 356.242188 -192.035156 355.921875 -169.609375 C 355.609375 -147.191406 351.078125 -125.242188 342.328125 -103.765625 C 333.585938 -82.296875 320.628906 -62.972656 303.453125 -45.796875 C 285.953125 -28.304688 266.390625 -15.109375 244.765625 -6.203125 C 223.140625 2.703125 201.191406 7.15625 178.921875 7.15625 C 157.296875 7.15625 136.222656 3.101562 115.703125 -5 C 95.179688 -13.113281 76.8125 -25.441406 60.59375 -41.984375 Z M 160.796875 -315.375 C 150.296875 -313.789062 141.785156 -305.601562 135.265625 -290.8125 C 128.742188 -276.019531 124.765625 -256.929688 123.328125 -233.546875 C 121.898438 -210.171875 123.253906 -184.488281 127.390625 -156.5 C 131.847656 -128.820312 138.289062 -104.085938 146.71875 -82.296875 C 155.144531 -60.515625 164.6875 -43.578125 175.34375 -31.484375 C 186 -19.398438 196.414062 -14.15625 206.59375 -15.75 C 216.769531 -17.332031 225.039062 -25.441406 231.40625 -40.078125 C 237.769531 -54.710938 241.742188 -73.796875 243.328125 -97.328125 C 244.921875 -120.867188 243.648438 -146.632812 239.515625 -174.625 C 235.378906 -202.300781 229.097656 -227.03125 220.671875 -248.8125 C 212.242188 -270.601562 202.78125 -287.539062 192.28125 -299.625 C 181.78125 -311.71875 171.285156 -316.96875 160.796875 -315.375 Z M 160.796875 -315.375 "/></g></g></g><g fill="#67178d" fill-opacity="1"><g transform="translate(1398.909622, 504.700091)"><g><path d="M 164.609375 0 L 4.765625 0 C 11.128906 -6.363281 15.503906 -13.914062 17.890625 -22.65625 C 20.273438 -31.40625 21.46875 -42.617188 21.46875 -56.296875 L 21.46875 -277.6875 C 21.46875 -291.363281 20.273438 -302.570312 17.890625 -311.3125 C 15.503906 -320.0625 11.128906 -327.617188 4.765625 -333.984375 L 121.671875 -333.984375 C 131.847656 -333.984375 138.765625 -330.40625 142.421875 -323.25 C 146.078125 -316.09375 147.90625 -306.472656 147.90625 -294.390625 L 147.90625 -286.28125 C 147.90625 -280.550781 148.222656 -277.207031 148.859375 -276.25 C 149.492188 -275.300781 150.289062 -274.828125 151.25 -274.828125 C 155.0625 -274.828125 158.796875 -277.050781 162.453125 -281.5 C 166.117188 -285.957031 170.414062 -291.523438 175.34375 -298.203125 C 180.269531 -304.878906 186.3125 -311.476562 193.46875 -318 C 200.625 -324.519531 209.6875 -330.003906 220.65625 -334.453125 C 231.632812 -338.910156 245.238281 -341.140625 261.46875 -341.140625 C 278.957031 -341.140625 293.03125 -337.71875 303.6875 -330.875 C 314.34375 -324.039062 322.53125 -314.976562 328.25 -303.6875 C 333.976562 -292.394531 337.875 -280.226562 339.9375 -267.1875 C 342.007812 -254.144531 343.046875 -241.421875 343.046875 -229.015625 L 343.53125 -137.890625 L 343.53125 -56.296875 C 343.53125 -42.617188 344.722656 -31.40625 347.109375 -22.65625 C 349.492188 -13.914062 353.867188 -6.363281 360.234375 0 L 200.390625 0 C 206.753906 -6.363281 211.128906 -13.914062 213.515625 -22.65625 C 215.898438 -31.40625 217.09375 -42.617188 217.09375 -56.296875 L 217.09375 -211.359375 C 217.09375 -222.492188 215.179688 -232.351562 211.359375 -240.9375 C 207.546875 -249.53125 200.390625 -253.828125 189.890625 -253.828125 C 182.578125 -253.828125 175.738281 -251.835938 169.375 -247.859375 C 163.019531 -243.890625 157.851562 -237.050781 153.875 -227.34375 C 149.894531 -217.644531 147.90625 -203.890625 147.90625 -186.078125 L 147.90625 -56.296875 C 147.90625 -42.617188 149.097656 -31.40625 151.484375 -22.65625 C 153.867188 -13.914062 158.242188 -6.363281 164.609375 0 Z M 164.609375 0 "/></g></g></g><g fill="#67178d" fill-opacity="1"><g transform="translate(1761.517186, 504.700091)"><g><path d="M 146.953125 7.15625 C 118.328125 7.15625 93.992188 -0.394531 73.953125 -15.5 C 53.910156 -30.613281 38.5625 -50.8125 27.90625 -76.09375 C 17.25 -101.382812 11.921875 -129.457031 11.921875 -160.3125 C 11.921875 -181.945312 14.546875 -203.414062 19.796875 -224.71875 C 25.046875 -246.03125 33.15625 -265.429688 44.125 -282.921875 C 55.101562 -300.421875 69.097656 -314.5 86.109375 -325.15625 C 103.128906 -335.8125 123.410156 -341.140625 146.953125 -341.140625 C 160.316406 -341.140625 171.53125 -339.226562 180.59375 -335.40625 C 189.65625 -331.59375 197.207031 -327.222656 203.25 -322.296875 C 209.300781 -317.367188 214.234375 -312.992188 218.046875 -309.171875 C 221.859375 -305.359375 224.878906 -303.453125 227.109375 -303.453125 C 228.066406 -303.453125 229.578125 -304.007812 231.640625 -305.125 C 233.710938 -306.238281 234.75 -309.816406 234.75 -315.859375 L 234.75 -382.65625 C 234.75 -384.5625 234.585938 -387.976562 234.265625 -392.90625 C 233.953125 -397.84375 232.441406 -402.851562 229.734375 -407.9375 C 227.035156 -413.03125 221.867188 -416.847656 214.234375 -419.390625 C 213.597656 -419.710938 212.242188 -420.191406 210.171875 -420.828125 C 208.109375 -421.460938 207.078125 -423.210938 207.078125 -426.078125 C 207.078125 -428.617188 207.867188 -430.207031 209.453125 -430.84375 C 211.046875 -431.476562 212.003906 -431.957031 212.328125 -432.28125 C 216.140625 -433.863281 222.257812 -436.644531 230.6875 -440.625 C 239.113281 -444.601562 248.8125 -449.054688 259.78125 -453.984375 C 270.757812 -458.910156 281.816406 -463.679688 292.953125 -468.296875 C 304.085938 -472.910156 314.425781 -476.726562 323.96875 -479.75 C 333.507812 -482.769531 341.144531 -484.28125 346.875 -484.28125 C 353.863281 -484.28125 357.992188 -482.367188 359.265625 -478.546875 C 360.546875 -474.734375 361.1875 -470.441406 361.1875 -465.671875 L 361.1875 -56.296875 C 361.1875 -42.617188 362.378906 -31.40625 364.765625 -22.65625 C 367.148438 -13.914062 371.523438 -6.363281 377.890625 0 L 260.984375 0 C 250.804688 0 243.890625 -3.5 240.234375 -10.5 C 236.578125 -17.5 234.75 -27.039062 234.75 -39.125 L 234.75 -43.890625 C 234.75 -47.390625 233.710938 -48.582031 231.640625 -47.46875 C 229.578125 -46.351562 227.75 -44.523438 226.15625 -41.984375 C 217.882812 -28.304688 209.21875 -17.96875 200.15625 -10.96875 C 191.09375 -3.976562 182.023438 0.785156 172.953125 3.328125 C 163.890625 5.878906 155.222656 7.15625 146.953125 7.15625 Z M 200.390625 -291.046875 C 187.035156 -291.046875 176.300781 -287.46875 168.1875 -280.3125 C 160.070312 -273.15625 153.785156 -263.691406 149.328125 -251.921875 C 144.878906 -240.148438 141.859375 -227.425781 140.265625 -213.75 C 138.679688 -200.070312 137.890625 -186.710938 137.890625 -173.671875 C 137.890625 -159.992188 138.285156 -146 139.078125 -131.6875 C 139.878906 -117.375 141.945312 -104.253906 145.28125 -92.328125 C 148.625 -80.398438 154.03125 -70.773438 161.5 -63.453125 C 168.976562 -56.140625 179.398438 -52.484375 192.765625 -52.484375 C 202.304688 -52.484375 209.859375 -55.109375 215.421875 -60.359375 C 220.984375 -65.609375 225.195312 -72.285156 228.0625 -80.390625 C 230.925781 -88.503906 232.753906 -96.773438 233.546875 -105.203125 C 234.347656 -113.628906 234.75 -121.1875 234.75 -127.875 L 234.75 -220.90625 C 234.75 -226.945312 234.347656 -233.941406 233.546875 -241.890625 C 232.753906 -249.847656 231.164062 -257.5625 228.78125 -265.03125 C 226.394531 -272.507812 222.894531 -278.710938 218.28125 -283.640625 C 213.664062 -288.578125 207.703125 -291.046875 200.390625 -291.046875 Z M 200.390625 -291.046875 "/></g></g></g><g fill="#67178d" fill-opacity="1"><g transform="translate(2141.778088, 504.700091)"><g><path d="M 9.546875 -122.140625 C 9.546875 -139.316406 14.394531 -155.140625 24.09375 -169.609375 C 33.789062 -184.085938 46.832031 -196.414062 63.21875 -206.59375 C 79.601562 -216.769531 97.492188 -224.085938 116.890625 -228.546875 C 122.296875 -229.816406 127.863281 -231.007812 133.59375 -232.125 C 139.320312 -233.238281 142.1875 -234.429688 142.1875 -235.703125 C 142.1875 -238.878906 139.71875 -240.707031 134.78125 -241.1875 C 129.851562 -241.664062 124.6875 -242.222656 119.28125 -242.859375 C 102.101562 -245.085938 85.878906 -251.445312 70.609375 -261.9375 C 55.347656 -272.4375 42.941406 -285.640625 33.390625 -301.546875 C 23.847656 -317.453125 19.078125 -334.3125 19.078125 -352.125 C 19.078125 -382.332031 27.03125 -407.140625 42.9375 -426.546875 C 58.84375 -445.953125 80.710938 -460.425781 108.546875 -469.96875 C 136.378906 -479.507812 168.265625 -484.28125 204.203125 -484.28125 C 240.148438 -484.28125 272.117188 -479.507812 300.109375 -469.96875 C 328.097656 -460.425781 350.125 -445.953125 366.1875 -426.546875 C 382.25 -407.140625 390.28125 -382.332031 390.28125 -352.125 C 390.28125 -334.3125 385.507812 -317.769531 375.96875 -302.5 C 366.425781 -287.226562 354.019531 -274.421875 338.75 -264.078125 C 323.488281 -253.742188 307.269531 -246.671875 290.09375 -242.859375 C 284.6875 -241.585938 279.515625 -240.710938 274.578125 -240.234375 C 269.648438 -239.753906 267.1875 -238.242188 267.1875 -235.703125 C 267.1875 -234.429688 270.128906 -233.238281 276.015625 -232.125 C 281.898438 -231.007812 287.390625 -229.816406 292.484375 -228.546875 C 312.203125 -224.085938 330.171875 -216.769531 346.390625 -206.59375 C 362.609375 -196.414062 375.566406 -184.085938 385.265625 -169.609375 C 394.972656 -155.140625 399.828125 -139.316406 399.828125 -122.140625 C 399.828125 -98.921875 394.65625 -79.117188 384.3125 -62.734375 C 373.976562 -46.359375 359.742188 -33 341.609375 -22.65625 C 323.484375 -12.320312 302.648438 -4.769531 279.109375 0 C 255.578125 4.769531 230.769531 7.15625 204.6875 7.15625 C 178.601562 7.15625 153.789062 4.769531 130.25 0 C 106.71875 -4.769531 85.882812 -12.320312 67.75 -22.65625 C 49.625 -33 35.390625 -46.359375 25.046875 -62.734375 C 14.710938 -79.117188 9.546875 -98.921875 9.546875 -122.140625 Z M 204.6875 -459.46875 C 175.101562 -459.46875 153.710938 -450.003906 140.515625 -431.078125 C 127.316406 -412.148438 120.71875 -387.421875 120.71875 -356.890625 C 120.71875 -335.898438 124.691406 -317.691406 132.640625 -302.265625 C 140.585938 -286.835938 150.921875 -274.90625 163.640625 -266.46875 C 176.367188 -258.039062 190.050781 -253.828125 204.6875 -253.828125 C 219.320312 -253.828125 233.078125 -258.039062 245.953125 -266.46875 C 258.835938 -274.90625 269.253906 -286.835938 277.203125 -302.265625 C 285.160156 -317.691406 289.140625 -335.898438 289.140625 -356.890625 C 289.140625 -387.421875 282.457031 -412.148438 269.09375 -431.078125 C 255.738281 -450.003906 234.269531 -459.46875 204.6875 -459.46875 Z M 131.6875 -122.140625 C 131.6875 -90.648438 138.363281 -65.363281 151.71875 -46.28125 C 165.082031 -27.195312 182.738281 -17.65625 204.6875 -17.65625 C 226.632812 -17.65625 244.285156 -27.195312 257.640625 -46.28125 C 271.003906 -65.363281 277.6875 -90.648438 277.6875 -122.140625 C 277.6875 -142.503906 274.664062 -160.398438 268.625 -175.828125 C 262.582031 -191.253906 254.070312 -203.421875 243.09375 -212.328125 C 232.125 -221.234375 219.320312 -225.6875 204.6875 -225.6875 C 190.050781 -225.6875 177.242188 -221.234375 166.265625 -212.328125 C 155.296875 -203.421875 146.789062 -191.253906 140.75 -175.828125 C 134.707031 -160.398438 131.6875 -142.503906 131.6875 -122.140625 Z M 131.6875 -122.140625 "/></g></g></g></g></g></g><path fill="#b42894" d="M 1448.949219 667.8125 C 1372.65625 707.257812 1283.648438 716.339844 1199.050781 718.414062 C 1107.96875 720.75 1017.144531 714.78125 926.578125 706.480469 C 834.976562 697.914062 743.632812 687.277344 651.769531 680.789062 C 606.097656 677.675781 560.167969 675.859375 514.234375 675.597656 C 471.160156 675.339844 427.5625 675.078125 384.484375 680.269531 C 341.148438 685.460938 297.8125 697.65625 264.597656 727.496094 C 235.535156 753.707031 214.515625 793.671875 222.558594 833.375 C 225.933594 849.980469 251.882812 846.089844 251.882812 829.480469 C 251.625 794.1875 265.375 764.347656 292.625 742.03125 C 323.246094 716.859375 364.246094 708.035156 402.390625 703.363281 C 489.0625 693.246094 577.292969 696.617188 664.226562 702.585938 C 840.683594 715.042969 1016.625 743.847656 1193.859375 737.617188 C 1284.167969 734.765625 1375.507812 724.382812 1454.136719 676.636719 C 1459.847656 673.261719 1454.917969 664.699219 1448.949219 667.8125 Z M 1448.949219 667.8125 " fill-opacity="1" fill-rule="nonzero"/><path fill="#b42894" d="M 1414.695312 725.421875 C 1337.363281 753.707031 1257.4375 760.453125 1175.695312 760.972656 C 1171.285156 760.972656 1169.726562 768.5 1174.65625 769.019531 C 1256.398438 781.214844 1341.515625 761.75 1416.511719 728.796875 C 1418.066406 728.015625 1416.769531 724.644531 1414.695312 725.421875 Z M 1414.695312 725.421875 " fill-opacity="1" fill-rule="nonzero"/><path fill="#b42894" d="M 294.960938 680.011719 C 265.117188 684.160156 237.609375 698.433594 216.851562 719.972656 C 206.210938 730.871094 197.128906 743.328125 190.902344 757.082031 C 185.710938 767.980469 176.109375 787.441406 183.894531 798.601562 C 187.527344 803.789062 193.753906 804.570312 198.425781 800.417969 C 207.25 792.890625 205.953125 775.765625 209.585938 764.867188 C 213.738281 752.410156 219.703125 740.730469 227.230469 730.09375 C 244.097656 706.996094 268.230469 690.128906 295.738281 682.605469 C 297.554688 682.34375 296.777344 679.75 294.960938 680.011719 Z M 294.960938 680.011719 " fill-opacity="1" fill-rule="nonzero"/></g></g></g></g></g></svg>